<?xml version="1.0" standalone="no"?>
<!DOCTYPE svg PUBLIC "-//W3C//DTD SVG 20010904//EN"
 "http://www.w3.org/TR/2001/REC-SVG-20010904/DTD/svg10.dtd">
<svg version="1.0" xmlns="http://www.w3.org/2000/svg"
 width="313.000000pt" height="313.000000pt" viewBox="0 0 313.000000 313.000000"
 preserveAspectRatio="xMidYMid meet">
<metadata>
Created by potrace 1.11, written by Peter Selinger 2001-2013
</metadata>
<g transform="translate(0.000000,313.000000) scale(0.100000,-0.100000)"
fill="#000000" stroke="none">
<path d="M1469 2756 c-2 -2 -22 -6 -44 -10 -22 -3 -49 -8 -60 -10 -11 -3 -36
-9 -55 -14 -20 -5 -45 -14 -58 -21 -12 -6 -22 -10 -22 -7 0 6 -73 -24 -80 -33
-3 -3 -23 -15 -45 -26 -22 -11 -42 -22 -45 -25 -3 -3 -27 -22 -55 -42 -58 -42
-139 -126 -167 -174 -11 -19 -24 -34 -29 -34 -5 0 -9 -6 -9 -14 0 -7 -9 -25
-21 -40 -11 -14 -17 -26 -14 -26 4 0 2 -6 -4 -13 -29 -36 -95 -230 -106 -316
-2 -14 -4 -26 -5 -26 -9 0 -14 -131 -13 -360 1 -309 3 -365 16 -365 4 0 5 -4
2 -10 -3 -5 -1 -29 6 -52 6 -24 13 -53 15 -66 8 -44 64 -185 95 -241 120 -215
303 -364 524 -427 33 -10 69 -19 80 -20 11 -1 40 -5 65 -9 105 -17 319 -5 432
25 24 7 52 14 62 16 31 6 196 86 196 96 0 4 7 8 15 8 40 0 255 252 255 299 0
6 5 11 12 11 6 0 9 3 5 6 -3 3 3 27 14 52 21 48 46 144 55 213 l6 38 -164 0
-164 -1 -2 -26 c-7 -75 -73 -262 -94 -262 -5 0 -7 -4 -3 -9 3 -5 -18 -35 -46
-66 -53 -57 -170 -124 -228 -131 -14 -1 -37 -6 -51 -10 -32 -9 -261 -14 -274
-6 -6 3 -23 7 -38 9 -70 7 -210 89 -268 157 -76 88 -148 228 -165 319 -4 20
-10 37 -14 37 -5 0 -12 58 -15 138 0 17 -3 32 -6 32 -8 0 -6 437 2 445 4 4 3
17 -2 30 -5 13 -6 26 -3 29 3 3 7 20 9 38 5 54 14 100 31 158 9 30 17 60 19
66 2 14 66 148 73 154 3 3 22 25 41 50 19 25 41 50 50 56 8 7 29 24 45 38 46
40 48 42 97 64 116 51 265 71 388 50 30 -5 65 -9 78 -10 12 -1 22 -6 22 -11 0
-4 4 -6 8 -3 14 8 135 -58 173 -95 65 -63 118 -156 148 -264 6 -22 13 -51 15
-65 2 -14 7 -36 10 -50 l7 -25 147 2 c81 1 153 2 160 2 15 1 15 68 0 88 -5 6
-8 17 -6 25 8 37 -96 297 -131 328 -4 3 -18 21 -33 40 -81 107 -195 188 -340
241 -46 17 -84 30 -85 30 -2 -1 -4 -1 -5 0 -16 4 -50 10 -79 13 -20 2 -41 6
-46 9 -9 6 -278 8 -284 3z"/>
</g>
</svg>
